# xmcd
#
# Track frame offsets: 
#        150
#        15790
#        32945
#        52338
#        66210
#        83208
#        98075
#        112058
#        128980
#        145318
#        162273
#        176843
#
# Disc length: 2580 seconds
#
# Revision: 2
# Processed by: cddbd v1.5.1PL0 Copyright (c) Steve Scherf et al.
# Submitted via: ExactAudioCopy v0.95b1
#
DISCID=a80a120c
DTITLE=Brunner and Brunner - Wenn du einsam bist
DYEAR=1995
DGENRE=Schlager
TTITLE0=Wenn du einsam bist
TTITLE1=Verbotene Träume der Nacht
TTITLE2=Liebe im Sand
TTITLE3=Heut' nacht war die Nacht
TTITLE4=Und jetzt du
TTITLE5=Holiday in San Jose
TTITLE6=Weil dein Herz dich verrät
TTITLE7=Du bist der Tag in meiner Nacht
TTITLE8=Von dir zu mir
TTITLE9=Mach doch auf die Tür zu dir
TTITLE10=Tränen wie Perlen im Meer
TTITLE11=Nathalie
EXTD=
EXTT0=
EXTT1=
EXTT2=
EXTT3=
EXTT4=
EXTT5=
EXTT6=
EXTT7=
EXTT8=
EXTT9=
EXTT10=
EXTT11=
PLAYORDER=
